<svg width="694" height="268" viewBox="0 0 694 268" fill="none" xmlns="http://www.w3.org/2000/svg">
<path d="M160.382 14.71C160.292 17.85 160.202 20.99 160.112 24.13C159.922 31.1 159.725 38.0733 159.522 45.05C159.312 52.9 159.092 60.7466 158.862 68.59C158.752 72.64 158.639 76.69 158.522 80.74C158.212 91.65 157.905 102.557 157.602 113.46C157.572 114.59 157.532 115.71 157.502 116.84C157.352 122.25 157.202 127.66 157.052 133.07C156.882 138.94 156.715 144.81 156.552 150.68C156.432 155.08 156.309 159.483 156.182 163.89C155.282 195.82 154.382 227.75 153.482 259.68C153.444 261.657 152.642 263.543 151.243 264.941C149.845 266.34 147.959 267.142 145.982 267.18C143.998 267.164 142.099 266.369 140.696 264.966C139.293 263.563 138.498 261.664 138.482 259.68C138.982 241.72 139.489 223.76 140.002 205.8C140.452 189.56 140.909 173.32 141.372 157.08C141.522 151.73 141.672 146.377 141.822 141.02C142.052 132.96 142.279 124.9 142.502 116.84C142.532 115.71 142.572 114.59 142.602 113.46C142.622 112.47 142.652 111.49 142.682 110.5C143.122 94.85 143.562 79.1966 144.002 63.54C144.182 57.38 144.355 51.2167 144.522 45.05C144.722 38.02 144.922 30.9933 145.122 23.97C145.212 20.88 145.292 17.8 145.382 14.71C145.42 12.7327 146.222 10.8471 147.621 9.44873C149.019 8.05036 150.905 7.24798 152.882 7.20996C154.866 7.22595 156.764 8.02127 158.168 9.42435C159.571 10.8274 160.366 12.7258 160.382 14.71Z" fill="#2B67F6"/>
<path d="M646.643 14.7095L643.943 110.503L641.258 205.797L639.739 259.68C639.756 261.664 640.552 263.562 641.955 264.965C643.358 266.368 645.255 267.164 647.239 267.18C649.216 267.142 651.102 266.34 652.5 264.941C653.899 263.543 654.701 261.658 654.739 259.68L657.439 163.887L660.124 68.5931L661.643 14.7095C661.626 12.7256 660.83 10.8277 659.427 9.42484C658.025 8.02196 656.127 7.22636 654.143 7.20947C652.166 7.24768 650.28 8.05013 648.882 9.44846C647.483 10.8468 646.681 12.7323 646.643 14.7095Z" fill="#2B67F6"/>
<path d="M22.7021 147C28.7773 147 33.7021 142.075 33.7021 136C33.7021 129.925 28.7773 125 22.7021 125C16.627 125 11.7021 129.925 11.7021 136C11.7021 142.075 16.627 147 22.7021 147Z" fill="#2B67F6"/>
<path d="M154.702 267C160.777 267 165.702 262.075 165.702 256C165.702 249.925 160.777 245 154.702 245C148.627 245 143.702 249.925 143.702 256C143.702 262.075 148.627 267 154.702 267Z" fill="#2B67F6"/>
<path d="M655.702 267C661.777 267 666.702 262.075 666.702 256C666.702 249.925 661.777 245 655.702 245C649.627 245 644.702 249.925 644.702 256C644.702 262.075 649.627 267 655.702 267Z" fill="#2B67F6"/>
<path d="M682.702 127C688.777 127 693.702 122.075 693.702 116C693.702 109.925 688.777 105 682.702 105C676.627 105 671.702 109.925 671.702 116C671.702 122.075 676.627 127 682.702 127Z" fill="#2B67F6"/>
<path d="M650.702 25C656.777 25 661.702 20.0751 661.702 14C661.702 7.92487 656.777 3 650.702 3C644.627 3 639.702 7.92487 639.702 14C639.702 20.0751 644.627 25 650.702 25Z" fill="#2B67F6"/>
<path d="M191.702 116C191.695 118.81 190.609 121.51 188.667 123.541C186.725 125.572 184.077 126.778 181.27 126.911C178.464 127.044 175.713 126.093 173.588 124.254C171.464 122.416 170.127 119.831 169.855 117.034C169.583 114.237 170.397 111.443 172.128 109.23C173.859 107.016 176.374 105.553 179.154 105.143C181.934 104.732 184.765 105.407 187.061 107.025C189.358 108.644 190.944 111.084 191.492 113.84C191.633 114.551 191.703 115.275 191.702 116Z" fill="#2B67F6"/>
<path d="M160.702 14.0002C160.695 16.81 159.609 19.5097 157.667 21.5407C155.725 23.5716 153.077 24.7784 150.27 24.9112C147.464 25.044 144.713 24.0927 142.588 22.2542C140.464 20.4156 139.127 17.8306 138.855 15.0339C138.583 12.2373 139.397 9.44317 141.128 7.22977C142.859 5.01637 145.374 3.5531 148.154 3.1428C150.934 2.73249 153.765 3.40654 156.061 5.02546C158.358 6.64437 159.944 9.08424 160.492 11.8402C160.633 12.5515 160.703 13.275 160.702 14.0002Z" fill="#2B67F6"/>
<path d="M526.702 151C532.777 151 537.702 146.075 537.702 140C537.702 133.925 532.777 129 526.702 129C520.627 129 515.702 133.925 515.702 140C515.702 146.075 520.627 151 526.702 151Z" fill="#2B67F6"/>
<path d="M190.442 116.84C190.095 115.827 189.513 114.912 188.742 114.17C188.457 113.906 188.149 113.668 187.822 113.46C185.212 111.72 181.312 111.33 178.832 113.46C178.582 113.676 178.351 113.914 178.142 114.17C177.402 115.08 176.642 115.97 175.862 116.84C174.582 118.3 173.272 119.71 171.902 121.08C171.512 121.46 171.122 121.85 170.722 122.23C170.492 122.46 170.262 122.68 170.032 122.9C169.152 123.74 168.252 124.55 167.342 125.35C166.862 125.78 166.382 126.2 165.892 126.61C165.162 127.22 164.432 127.83 163.692 128.42C163.622 128.47 163.552 128.52 163.482 128.58C163.462 128.59 163.452 128.61 163.432 128.62C163.422 128.62 163.412 128.62 163.402 128.64C163.375 128.65 163.351 128.668 163.332 128.69C163.112 128.84 162.962 128.94 162.852 129.03C162.892 129.01 162.932 128.98 162.972 128.96C162.792 129.1 162.602 129.24 162.422 129.38C160.672 130.67 158.882 131.91 157.052 133.07C152.524 135.967 147.768 138.493 142.832 140.62C142.502 140.75 142.162 140.89 141.822 141.02C128.896 146.315 114.875 148.381 100.972 147.04C99.5517 146.93 98.1316 146.78 96.7117 146.59C95.0717 146.35 93.4417 146.06 91.8217 145.73C85.6543 144.499 79.6198 142.677 73.8017 140.29C66.5238 136.957 59.6019 132.896 53.1417 128.17C52.1417 127.46 51.1317 126.75 50.1217 126.06C51.2717 123.24 52.4017 120.42 53.5017 117.58C54.0517 116.21 54.5817 114.84 55.1017 113.46C59.1917 102.83 63.0317 92.0997 66.7117 81.3298C70.4317 70.4198 73.9417 59.4464 77.2417 48.4098C77.5817 47.2898 77.9117 46.1698 78.2317 45.0498C79.9617 39.2198 81.6217 33.3764 83.2117 27.5198C83.3617 26.9498 83.5217 26.3898 83.6617 25.8198C84.1217 24.1398 84.5717 22.4598 85.0117 20.7798C86.0117 16.9898 83.7517 12.4598 79.7717 11.5498C77.8554 11.0585 75.8233 11.3301 74.1034 12.3076C72.3835 13.2851 71.1102 14.892 70.5517 16.7898C70.1217 18.4098 69.6917 20.0198 69.2517 21.6398C67.1417 29.4697 64.9217 37.2731 62.5917 45.0498C62.2517 46.1698 61.9117 47.2898 61.5717 48.4098C56.4317 65.3498 50.7884 82.1198 44.6417 98.7198C43.9017 100.73 43.1517 102.733 42.3917 104.73C42.0217 105.71 41.6517 106.69 41.2717 107.67C40.5417 109.6 39.7917 111.53 39.0417 113.46C38.6117 114.59 38.1717 115.72 37.7317 116.84C37.4417 117.55 37.1617 118.26 36.8817 118.96C34.0305 117.936 31.0765 117.225 28.0717 116.84L27.5917 116.78C25.2621 116.499 22.9062 116.52 20.5817 116.84C17.1028 117.246 13.7555 118.411 10.7764 120.253C7.79739 122.095 5.25935 124.569 3.34171 127.5C-1.42829 135.01 -1.3683 145.75 5.3217 152.13C12.2117 158.7 22.6417 158.65 30.7517 154.54C35.0495 152.215 38.6733 148.818 41.2717 144.68C42.2672 143.18 43.1818 141.627 44.0117 140.03C44.2217 140.17 44.4317 140.31 44.6417 140.46C45.4417 141.02 46.2417 141.59 47.0317 142.15C51.6347 145.484 56.4855 148.463 61.5417 151.06C72.4137 156.465 84.1166 160.004 96.1617 161.53C96.4317 161.56 96.6917 161.6 96.9617 161.63C98.2917 161.8 99.6317 161.93 100.972 162.04C120.194 163.488 139.44 159.555 156.552 150.68C158.002 149.93 159.438 149.143 160.862 148.32C163.072 147.04 165.232 145.68 167.342 144.24C168.492 143.46 169.612 142.67 170.722 141.84C175.572 138.267 180.094 134.268 184.232 129.89C185.802 128.24 187.305 126.536 188.742 124.78C190.1 123.343 190.883 121.456 190.942 119.48C190.934 118.577 190.765 117.683 190.442 116.84ZM24.8517 140.66C25.0617 140.51 25.2717 140.35 25.4717 140.19C25.4117 140.34 25.1217 140.51 24.8517 140.66H24.8517ZM28.0617 137.43C27.8317 137.69 27.6217 137.95 27.3917 138.21C26.692 138.993 25.9403 139.728 25.1417 140.41C25.0317 140.51 24.9117 140.61 24.7917 140.7C24.7904 140.7 24.7891 140.7 24.7878 140.7C24.7866 140.701 24.7855 140.702 24.7846 140.703C24.7836 140.704 24.7829 140.705 24.7824 140.706C24.7819 140.707 24.7817 140.708 24.7817 140.71C24.6373 140.774 24.497 140.848 24.3617 140.93C23.9317 141.19 23.4917 141.43 23.0417 141.65C22.1606 141.974 21.2542 142.225 20.3317 142.4C19.6229 142.451 18.9114 142.458 18.2017 142.42H18.1817C17.6919 142.311 17.208 142.178 16.7317 142.02C16.4917 141.9 16.2617 141.76 16.0317 141.62C15.9417 141.54 15.8617 141.46 15.8117 141.41C15.714 141.321 15.6238 141.224 15.5418 141.12C15.5418 141.118 15.5415 141.117 15.541 141.116C15.5406 141.115 15.5398 141.114 15.5389 141.113C15.538 141.112 15.5368 141.111 15.5356 141.11C15.5344 141.11 15.5331 141.11 15.5318 141.11C15.4217 140.91 15.3017 140.71 15.1918 140.51C15.1861 140.505 15.1825 140.497 15.1818 140.49C15.1018 140.24 15.0318 139.98 14.9718 139.72C14.9501 139.263 14.9534 138.806 14.9818 138.35C15.1159 137.711 15.2964 137.083 15.5218 136.47C15.7242 136.035 15.9547 135.614 16.2118 135.21C16.2318 135.17 16.3318 135.01 16.4418 134.83C16.4518 134.82 16.4518 134.82 16.4518 134.81C16.6018 134.64 16.7518 134.46 16.9118 134.3C17.1818 134 17.4718 133.74 17.7618 133.47C18.3258 133.101 18.91 132.763 19.5118 132.46C20.4664 132.121 21.4461 131.857 22.4418 131.67C23.9101 131.553 25.3858 131.566 26.8518 131.71C28.2403 131.951 29.6102 132.288 30.9518 132.72C30.1387 134.298 29.213 135.815 28.1818 137.26C28.1417 137.32 28.1017 137.38 28.0617 137.43ZM16.9417 134.14C16.8536 134.281 16.7496 134.412 16.6317 134.53C16.7111 134.382 16.816 134.25 16.9417 134.14Z" fill="#2B67F6"/>
<path d="M571.81 16.7912C563.946 46.5709 554.546 75.9238 543.649 104.732C540.642 112.679 537.566 120.609 534.277 128.444L535.034 126.653C533.566 130.385 531.691 133.943 529.444 137.265C529.291 137.479 529.136 137.691 528.977 137.901C529.754 136.907 529.902 136.711 529.42 137.312C529.166 137.613 528.915 137.914 528.652 138.207C527.952 138.991 527.201 139.727 526.403 140.411C526.203 140.582 525.999 140.751 525.792 140.915L526.729 140.186C526.621 140.443 525.857 140.783 525.619 140.929C524.848 141.394 524.044 141.801 523.214 142.147L525.006 141.391C523.644 141.94 522.225 142.329 520.774 142.552L522.768 142.284C521.343 142.481 519.899 142.496 518.47 142.33L520.464 142.598C519.295 142.437 518.151 142.129 517.059 141.681L518.851 142.437C518.268 142.183 517.707 141.884 517.172 141.541C516.901 141.364 516.067 140.732 517.157 141.565C518.29 142.431 517.303 141.64 517.069 141.41C516.875 141.218 516.7 141.01 516.51 140.815C515.628 139.91 517.506 142.371 516.907 141.313C516.586 140.783 516.293 140.237 516.028 139.676L516.784 141.468C516.44 140.615 516.196 139.726 516.056 138.817L516.324 140.81C516.181 139.68 516.18 138.536 516.321 137.406L516.053 139.399C516.237 138.137 516.571 136.902 517.048 135.719L516.292 137.511C516.625 136.715 517.019 135.947 517.47 135.212C517.678 134.833 517.922 134.474 518.198 134.141C518.248 134.157 516.93 135.654 517.629 134.898C517.812 134.7 517.983 134.492 518.168 134.296C518.464 133.982 518.782 133.695 519.094 133.398C520.138 132.404 517.632 134.364 518.837 133.577C519.711 133.003 520.63 132.501 521.586 132.078L519.795 132.834C521.396 132.176 523.075 131.726 524.79 131.494L522.796 131.762C524.944 131.515 527.115 131.541 529.257 131.838L527.263 131.571C529.975 131.982 532.626 132.727 535.155 133.791L533.363 133.034C538.753 135.348 543.526 138.784 548.291 142.152C552.894 145.485 557.743 148.463 562.797 151.059C573.67 156.465 585.374 160.005 597.42 161.533C614.695 163.649 632.226 161.393 648.402 154.971C664.579 148.55 678.884 138.169 690.005 124.781C691.362 123.342 692.144 121.454 692.202 119.477C692.188 117.491 691.4 115.589 690.005 114.174C687.254 111.648 682.056 110.935 679.399 114.174C676.88 117.249 674.173 120.163 671.292 122.901C669.947 124.177 668.566 125.414 667.15 126.611C666.341 127.295 665.52 127.965 664.689 128.622C664.295 128.933 663.07 129.76 664.952 128.425C664.521 128.731 664.107 129.065 663.681 129.379C657.383 134.022 650.559 137.904 643.349 140.944L645.141 140.188C637.405 143.433 629.28 145.66 620.97 146.811L622.963 146.543C614.415 147.667 605.755 147.654 597.21 146.505L599.204 146.773C590.66 145.599 582.305 143.324 574.347 140.002L576.138 140.758C568.458 137.36 561.17 133.139 554.402 128.167C550.879 125.559 547.164 123.221 543.289 121.173C538.774 118.867 533.885 117.381 528.851 116.785C519.412 115.674 509.794 119.35 504.605 127.505C499.829 135.01 499.891 145.749 506.578 152.13C513.466 158.703 523.897 158.647 532.014 154.536C539.831 150.576 544.527 142.35 547.829 134.594C555.26 117.139 561.839 99.2803 567.969 81.3309C574.033 63.5728 579.533 45.6351 584.467 27.5176C585.078 25.2737 585.681 23.0275 586.274 20.7789C587.275 16.9902 585.013 12.4589 581.036 11.553C579.119 11.0596 577.085 11.33 575.364 12.3074C573.643 13.2847 572.369 14.8924 571.81 16.7913L571.81 16.7912Z" fill="#2B67F6"/>
<path fill-rule="evenodd" clip-rule="evenodd" d="M353.953 265C427.131 265 486.453 205.678 486.453 132.5C486.453 59.3223 427.131 0 353.953 0C280.775 0 221.453 59.3223 221.453 132.5C221.453 205.678 280.775 265 353.953 265ZM426.885 59.3839L426.887 59.3854L280.838 205.434L280.837 205.433C240.506 165.102 240.506 99.7141 280.837 59.3839C321.167 19.0536 386.555 19.0536 426.885 59.3839Z" fill="#2B67F6"/>
</svg>
