<svg id="Avataaar_Default" data-name="Avataaar/Default" xmlns="http://www.w3.org/2000/svg" xmlns:xlink="http://www.w3.org/1999/xlink" width="264" height="280" viewBox="0 0 264 280">
  <defs>
    <clipPath id="clip-path">
      <path id="Body" d="M0,244v-9a72,72,0,0,1,72-72h4V144.611a56.038,56.038,0,0,1-31.694-44.73A12,12,0,0,1,34,88V74A12,12,0,0,1,44,62.166V56a56,56,0,0,1,112,0v6.166A12,12,0,0,1,166,74V88a12,12,0,0,1-10.3,11.881A56.038,56.038,0,0,1,124,144.611V163h4a72,72,0,0,1,72,72v9Z" fill="none"/>
    </clipPath>
    <clipPath id="clip-path-2">
      <path id="Clothes" d="M32,110v-8.948A71.729,71.729,0,0,1,51.477,51.8,72.214,72.214,0,0,1,72.769,36.159,71.374,71.374,0,0,1,99.045,29.22c-.03.369-.045.748-.045,1.127a15.027,15.027,0,0,0,2.632,8.362,23.883,23.883,0,0,0,7.179,6.827,38.193,38.193,0,0,0,10.649,4.6,51.224,51.224,0,0,0,26.079,0,38.2,38.2,0,0,0,10.648-4.6,23.883,23.883,0,0,0,7.179-6.827A15.028,15.028,0,0,0,166,30.347c0-.349-.014-.7-.04-1.052A72.008,72.008,0,0,1,232,101.052V110H32Z" fill="none"/>
    </clipPath>
    <clipPath id="clip-path-3">
      <path id="Mask" d="M0,280V0H264V280Z" fill="none"/>
    </clipPath>
    <clipPath id="clip-path-4">
      <path id="Dreads_With_Cut" data-name="Dreads With Cut" d="M3.631,81.263C1.192,81.249.661,57.477,1.714,48.047c.162-1.448.785-4.038.334-5.341C1.653,41.568-.275,41.571.033,39.675c.349-2.157,2.525-1.085,3.473-2.118C5.3,35.6,2.533,35.14,2.073,33.431c-.682-2.542,1.29-3.2,3.067-4,1.966-.887,1.711-.108,3.307-1.846-2.132-1.562-2.9-3.691.016-4.833a7.921,7.921,0,0,1,2.5-.2,5.9,5.9,0,0,0,2.934-.374c.254-.191.354-1.28.509-1.5,1.551-2.219,1.168-3.825,1.012-6.316-.13-2.038-.113-3.909,2.328-4.113,1.628-.135,2.952,1.2,4.411,1.587,1.619.435,1.011.752,2.279-.121,2.227-1.534.711-4.521,2.477-6.3,2.422-2.445,4.01,1.139,5.955,1.41,4.223.589,2.867-3.7,5.367-5.271,2.988-1.877,3.277,2.251,5.144,2.4C45,4.075,47.908.955,49.317.374c2.282-.942,3.938.076,5.617,1.1,1.4.848,2.812,1.7,4.62,1.415,2.889-.45,3.669-.817,6.277.827,2.531,1.6,3.133.454,6,.432C73.854,4.128,75.094,5.82,76.788,6a2.5,2.5,0,0,0,1.278-.366,2.659,2.659,0,0,1,1.282-.37c3.237.2,3.442,4.382,6.014,5.535,2.35,1.053,5.113-.427,7.445-.7,5.691-.668,1.794,4.648,1.955,7.819a6.167,6.167,0,0,0,3.457-.572,6.536,6.536,0,0,1,3.267-.608c3.5.6,2.18,4.234,1.369,6.68,2.425-.043,8.759-2.737,10.331.707.81,1.777-1.078,4.147-1.048,5.953.044,2.542,1.912,4.644,2.572,7.05.892,3.247,2.163,11.95-.073,14.833-.746.962-5.841-1.74-7.965-2.913-17.846-9.86-21.31-13-49.426-12.586S9.868,50.04,8.784,51.387c-.754.938-1.716,3.441-2.507,10.413s.217,19.463-2.641,19.463ZM114.654,80.1c-.752-.234-1.9-4.955-2.065-7.718s-1.733-12.164-4.142-16.49c-.55-.988-2.126-2.723-1.445-3.559.844-1.037,1.664-.436,2.7-.021a38.418,38.418,0,0,1,4.135,2.615c1.757.988,3.148,10.9,3.216,14.689.041,2.242.077,10.533-2.1,10.532A.985.985,0,0,1,114.654,80.1Z" transform="translate(72 19)" fill="#2e3257"/>
    </clipPath>
  </defs>
  <g id="Body-2" data-name="Body" transform="translate(32 36)">
    <g id="Body-3" data-name="Body">
      <path id="Body-4" data-name="Body" d="M0,244v-9a72,72,0,0,1,72-72h4V144.611a56.038,56.038,0,0,1-31.694-44.73A12,12,0,0,1,34,88V74A12,12,0,0,1,44,62.166V56a56,56,0,0,1,112,0v6.166A12,12,0,0,1,166,74V88a12,12,0,0,1-10.305,11.881A56.038,56.038,0,0,1,124,144.611V163h4a72,72,0,0,1,72,72v9Z" fill="#d0c6ac"/>
      <path id="Body-5" data-name="Body" d="M0,244v-9a72,72,0,0,1,72-72h4V144.611a56.038,56.038,0,0,1-31.694-44.73A12,12,0,0,1,34,88V74A12,12,0,0,1,44,62.166V56a56,56,0,0,1,112,0v6.166A12,12,0,0,1,166,74V88a12,12,0,0,1-10.305,11.881A56.038,56.038,0,0,1,124,144.611V163h4a72,72,0,0,1,72,72v9Z" fill="none"/>
    </g>
    <g id="Body-6" data-name="Body" clip-path="url(#clip-path)">
      <g id="_Skin" data-name="ðŸŽ¨ Skin" transform="translate(-32)">
        <g id="Color">
          <rect id="Color-2" data-name="Color" width="264" height="244" fill="#d08b5b"/>
          <rect id="Color-3" data-name="Color" width="264" height="244" fill="none"/>
        </g>
      </g>
      <g id="Neck_Shadow" data-name="Neck Shadow">
        <path id="Neck_Shadow-2" data-name="Neck Shadow" d="M56,79a55.648,55.648,0,0,1-21.8-4.4,56,56,0,0,1-9.512-5.163A56.31,56.31,0,0,1,9.564,54.31,55.739,55.739,0,0,1,0,23V15.481A55.749,55.749,0,0,0,9.564,46.31,56.309,56.309,0,0,0,24.69,61.436,56.007,56.007,0,0,0,34.2,66.6a56.184,56.184,0,0,0,43.6,0,56.007,56.007,0,0,0,9.512-5.163A56.307,56.307,0,0,0,102.436,46.31,55.737,55.737,0,0,0,112,15.026V23a55.739,55.739,0,0,1-9.564,31.31A56.307,56.307,0,0,1,87.31,69.436,56,56,0,0,1,77.8,74.6,55.65,55.65,0,0,1,56,79Z" transform="translate(44 79)" fill="rgba(0,0,0,0.1)"/>
        <path id="Neck_Shadow-3" data-name="Neck Shadow" d="M56,79a55.648,55.648,0,0,1-21.8-4.4,56,56,0,0,1-9.512-5.163A56.31,56.31,0,0,1,9.564,54.31,55.739,55.739,0,0,1,0,23V15.481A55.749,55.749,0,0,0,9.564,46.31,56.309,56.309,0,0,0,24.69,61.436,56.007,56.007,0,0,0,34.2,66.6a56.184,56.184,0,0,0,43.6,0,56.007,56.007,0,0,0,9.512-5.163A56.307,56.307,0,0,0,102.436,46.31,55.737,55.737,0,0,0,112,15.026V23a55.739,55.739,0,0,1-9.564,31.31A56.307,56.307,0,0,1,87.31,69.436,56,56,0,0,1,77.8,74.6,55.65,55.65,0,0,1,56,79Z" transform="translate(44 79)" fill="none"/>
        <path id="Neck_Shadow-4" data-name="Neck Shadow" d="M56,79a55.648,55.648,0,0,1-21.8-4.4,56,56,0,0,1-9.512-5.163A56.31,56.31,0,0,1,9.564,54.31,55.739,55.739,0,0,1,0,23V15.481A55.749,55.749,0,0,0,9.564,46.31,56.309,56.309,0,0,0,24.69,61.436,56.007,56.007,0,0,0,34.2,66.6a56.184,56.184,0,0,0,43.6,0,56.007,56.007,0,0,0,9.512-5.163A56.307,56.307,0,0,0,102.436,46.31,55.737,55.737,0,0,0,112,15.026V23a55.739,55.739,0,0,1-9.564,31.31A56.307,56.307,0,0,1,87.31,69.436,56,56,0,0,1,77.8,74.6,55.65,55.65,0,0,1,56,79Z" transform="translate(44 79)" fill="none"/>
      </g>
    </g>
  </g>
  <g id="_Clothes" data-name="ðŸ‘” Clothes" transform="translate(0 170)">
    <g id="Group_7" data-name="Group 7">
      <g id="Clothes-2" data-name="Clothes">
        <path id="Clothes-3" data-name="Clothes" d="M200,80.78H0V71.833A71.732,71.732,0,0,1,19.477,22.583,72.214,72.214,0,0,1,40.768,6.94,71.371,71.371,0,0,1,67.045,0C67.015.37,67,.749,67,1.128a15.024,15.024,0,0,0,2.633,8.361,23.9,23.9,0,0,0,7.179,6.828,38.207,38.207,0,0,0,10.649,4.6,49.84,49.84,0,0,0,13.04,1.688,49.837,49.837,0,0,0,13.04-1.688,38.206,38.206,0,0,0,10.648-4.6,23.9,23.9,0,0,0,7.179-6.828A15.024,15.024,0,0,0,134,1.128c0-.349-.013-.7-.04-1.052A72.006,72.006,0,0,1,200,71.833v8.947Z" transform="translate(32 29.22)" fill="#e6e6e6"/>
        <path id="Clothes-4" data-name="Clothes" d="M200,80.78H0V71.833A71.732,71.732,0,0,1,19.477,22.583,72.214,72.214,0,0,1,40.768,6.94,71.371,71.371,0,0,1,67.045,0C67.015.37,67,.749,67,1.128a15.024,15.024,0,0,0,2.633,8.361,23.9,23.9,0,0,0,7.179,6.828,38.207,38.207,0,0,0,10.649,4.6,49.84,49.84,0,0,0,13.04,1.688,49.837,49.837,0,0,0,13.04-1.688,38.206,38.206,0,0,0,10.648-4.6,23.9,23.9,0,0,0,7.179-6.828A15.024,15.024,0,0,0,134,1.128c0-.349-.013-.7-.04-1.052A72.006,72.006,0,0,1,200,71.833v8.947Z" transform="translate(32 29.22)" fill="none"/>
      </g>
      <g id="Mask_Group_7" data-name="Mask Group 7" clip-path="url(#clip-path-2)">
        <g id="_Color_Fabric" data-name="â†³ Color Fabric">
          <g id="_Color" data-name="ðŸ–Color">
            <rect id="_Color-2" data-name="ðŸ–Color" width="264" height="110" fill="#e6e6e6"/>
            <rect id="_Color-3" data-name="ðŸ–Color" width="264" height="110" fill="none"/>
          </g>
        </g>
        <g id="Shadowy" transform="translate(92 4)" opacity="0.6">
          <ellipse id="Hola_" data-name="Hola ðŸ‘‹ðŸ¼" cx="39.635" cy="26.914" rx="39.635" ry="26.914" transform="translate(0.865 0.934)" fill="rgba(0,0,0,0.16)"/>
        </g>
      </g>
    </g>
  </g>
  <g id="Face" transform="translate(76 82)">
    <g id="_Mouth" data-name="ðŸ‘„ Mouth" transform="translate(2 52)">
      <rect id="Mouth_Default_background" data-name="Mouth/Default background" width="108" height="44" fill="none"/>
      <path id="Mouth" d="M0,0A14,14,0,0,0,14,14h0A14,14,0,0,0,28,0" transform="translate(40 15)" fill="rgba(0,0,0,0.7)"/>
    </g>
    <g id="_Nose" data-name="ðŸ‘ƒðŸ½ Nose" transform="translate(28 40)">
      <rect id="Nose_Default_background" data-name="Nose/Default background" width="56" height="24" fill="none"/>
      <path id="Nose" d="M0,0C0,4.418,5.373,8,12,8h0c6.627,0,12-3.582,12-8" transform="translate(16 8)" fill="rgba(0,0,0,0.16)"/>
    </g>
    <g id="_Eyes" data-name="ðŸ‘ Eyes" transform="translate(0 8)">
      <rect id="Eyes_Default_background" data-name="Eyes/Default ðŸ˜€ background" width="112" height="44" fill="none"/>
      <circle id="Eye" cx="6" cy="6" r="6" transform="translate(24 16)" fill="rgba(0,0,0,0.6)"/>
      <circle id="Eye-2" data-name="Eye" cx="6" cy="6" r="6" transform="translate(76 16)" fill="rgba(0,0,0,0.6)"/>
    </g>
    <g id="_Eyebrow" data-name="âœï¸ Eyebrow">
      <g id="I_Browse" data-name="I Browse" transform="translate(12 6)">
        <path id="Eyebrow" d="M3.63,11.08c3.915-5.509,14.648-8.6,23.893-6.327A2,2,0,1,0,28.477.868C17.741-1.768,5.312,1.809.37,8.763A2,2,0,0,0,3.63,11.08Z" transform="translate(0 0.078)" fill="rgba(0,0,0,0.6)"/>
        <path id="Eyebrow-2" data-name="Eyebrow" d="M-3.63,11.08c-3.915-5.509-14.648-8.6-23.893-6.327a2,2,0,0,1-2.419-1.465A2,2,0,0,1-28.477.868C-17.741-1.768-5.312,1.809-.37,8.763a2,2,0,0,1-.472,2.789A2,2,0,0,1-3.63,11.08Z" transform="translate(88 0.078)" fill="rgba(0,0,0,0.6)"/>
      </g>
    </g>
  </g>
  <g id="Top">
    <g id="Mask-2" data-name="Mask">
      <rect id="Mask-3" data-name="Mask" width="264" height="280" fill="none"/>
      <rect id="Mask-4" data-name="Mask" width="264" height="280" fill="none"/>
    </g>
    <g id="Top-2" data-name="Top" clip-path="url(#clip-path-3)">
      <g id="Top-3" data-name="Top" transform="translate(-1)">
        <g id="Hair" transform="translate(1)">
          <path id="Dreads_With_Cut-2" data-name="Dreads With Cut" d="M3.631,81.263C1.192,81.249.661,57.477,1.714,48.047c.162-1.448.785-4.038.334-5.341C1.653,41.568-.275,41.571.033,39.675c.349-2.157,2.525-1.085,3.473-2.118C5.3,35.6,2.533,35.14,2.073,33.431c-.682-2.542,1.29-3.2,3.067-4,1.966-.887,1.711-.108,3.307-1.846-2.132-1.562-2.9-3.691.016-4.833a7.921,7.921,0,0,1,2.5-.2,5.9,5.9,0,0,0,2.934-.374c.254-.191.354-1.28.509-1.5,1.551-2.219,1.168-3.825,1.012-6.316-.13-2.038-.113-3.909,2.328-4.113,1.628-.135,2.952,1.2,4.411,1.587,1.619.435,1.011.752,2.279-.121,2.227-1.534.711-4.521,2.477-6.3,2.422-2.445,4.01,1.139,5.955,1.41,4.223.589,2.867-3.7,5.367-5.271,2.988-1.877,3.277,2.251,5.144,2.4C45,4.075,47.908.955,49.317.374c2.282-.942,3.938.076,5.617,1.1,1.4.848,2.812,1.7,4.62,1.415,2.889-.45,3.669-.817,6.277.827,2.531,1.6,3.133.454,6,.432C73.854,4.128,75.094,5.82,76.788,6a2.5,2.5,0,0,0,1.278-.366,2.659,2.659,0,0,1,1.282-.37c3.237.2,3.442,4.382,6.014,5.535,2.35,1.053,5.113-.427,7.445-.7,5.691-.668,1.794,4.648,1.955,7.819a6.167,6.167,0,0,0,3.457-.572,6.536,6.536,0,0,1,3.267-.608c3.5.6,2.18,4.234,1.369,6.68,2.425-.043,8.759-2.737,10.331.707.81,1.777-1.078,4.147-1.048,5.953.044,2.542,1.912,4.644,2.572,7.05.892,3.247,2.163,11.95-.073,14.833-.746.962-5.841-1.74-7.965-2.913-17.846-9.86-21.31-13-49.426-12.586S9.868,50.04,8.784,51.387c-.754.938-1.716,3.441-2.507,10.413s.217,19.463-2.641,19.463ZM114.654,80.1c-.752-.234-1.9-4.955-2.065-7.718s-1.733-12.164-4.142-16.49c-.55-.988-2.126-2.723-1.445-3.559.844-1.037,1.664-.436,2.7-.021a38.418,38.418,0,0,1,4.135,2.615c1.757.988,3.148,10.9,3.216,14.689.041,2.242.077,10.533-2.1,10.532A.985.985,0,0,1,114.654,80.1Z" transform="translate(72 19)" fill="#2e3257"/>
          <g id="Hair-2" data-name="Hair" clip-path="url(#clip-path-4)">
            <g id="_Hair_Color" data-name="â†³ ðŸ’ˆHair Color">
              <g id="Color-4" data-name="Color">
                <rect id="Color-5" data-name="Color" width="264" height="280" fill="#2c1b18"/>
                <rect id="Color-6" data-name="Color" width="264" height="280" fill="none"/>
              </g>
            </g>
          </g>
        </g>
      </g>
    </g>
  </g>
</svg>
