<svg width="29" height="28" viewBox="0 0 29 28" fill="none" xmlns="http://www.w3.org/2000/svg">
<path fill-rule="evenodd" clip-rule="evenodd" d="M5.01778 14.9278C3.83037 13.7299 3.16356 12.1108 3.16356 10.4227C3.16356 8.72518 3.83739 7.09674 5.03767 5.89646C6.23795 4.69618 7.8664 4.02234 9.56387 4.02234C11.2613 4.02234 12.8898 4.69618 14.0901 5.89646L14.5276 6.33399L14.9651 5.89646C16.1654 4.69618 17.7927 4.02234 19.4902 4.02234C21.1888 4.02234 22.8161 4.69618 24.0164 5.89646C25.2166 7.09674 25.8916 8.72518 25.8916 10.4227C25.8916 12.1108 25.2248 13.7299 24.0362 14.9278L15.3535 24.1217C15.1394 24.3487 14.8399 24.4774 14.5276 24.4774C14.2152 24.4774 13.9158 24.3487 13.7017 24.1217L5.01778 14.9278ZM14.5276 21.6861L22.3867 13.3649L22.4101 13.3415C23.1834 12.567 23.6186 11.5176 23.6186 10.4227C23.6186 9.32766 23.1834 8.2783 22.4101 7.50385C21.6357 6.7294 20.5851 6.29421 19.4902 6.29421C18.3963 6.29421 17.3458 6.7294 16.5714 7.50385L15.3313 8.74507C14.8868 9.18845 14.1673 9.18845 13.7239 8.74507L12.4827 7.50385C11.7094 6.7294 10.6589 6.29421 9.56387 6.29421C8.46888 6.29421 7.41952 6.7294 6.64507 7.50385C5.87062 8.2783 5.43659 9.32766 5.43659 10.4227C5.43659 11.5176 5.87062 12.567 6.64507 13.3415C6.65326 13.3497 6.66027 13.3567 6.66729 13.3649L14.5276 21.6861Z" fill="#A5A7A7"/>
</svg>
