<svg width="29" height="28" viewBox="0 0 29 28" fill="none" xmlns="http://www.w3.org/2000/svg">
<path fill-rule="evenodd" clip-rule="evenodd" d="M13.3111 6.40901V4.05337C13.3111 3.4258 13.8204 2.91647 14.448 2.91647C15.0744 2.91647 15.5849 3.4258 15.5849 4.05337V6.40901C17.2743 6.6523 18.8534 7.43676 20.0745 8.65778C21.5672 10.1505 22.4062 12.1753 22.4062 14.2854V18.5647L23.326 20.4042C23.766 21.2852 23.7193 22.3312 23.2009 23.1691C22.6836 24.007 21.7684 24.5174 20.7839 24.5174H15.5849C15.5849 25.145 15.0744 25.6543 14.448 25.6543C13.8204 25.6543 13.3111 25.145 13.3111 24.5174H8.11207C7.12639 24.5174 6.21121 24.007 5.69392 23.1691C5.1755 22.3312 5.12887 21.2852 5.56999 20.4042L6.48972 18.5647V14.2854C6.48972 12.1753 7.32763 10.1505 8.82037 8.65778C10.0425 7.43676 11.6205 6.6523 13.3111 6.40901ZM14.448 8.60093C12.9393 8.60093 11.4943 9.20008 10.4279 10.2665C9.36154 11.3318 8.76351 12.7779 8.76351 14.2854V18.833C8.76351 19.0092 8.72146 19.1831 8.64301 19.3412C8.64301 19.3412 8.13709 20.353 7.60275 21.4205C7.51521 21.5968 7.5243 21.8071 7.62776 21.9742C7.73122 22.1413 7.91425 22.2436 8.11207 22.2436H20.7839C20.9806 22.2436 21.1636 22.1413 21.2671 21.9742C21.3705 21.8071 21.3796 21.5968 21.2921 21.4205C20.7577 20.353 20.2518 19.3412 20.2518 19.3412C20.1734 19.1831 20.1324 19.0092 20.1324 18.833V14.2854C20.1324 12.7779 19.5333 11.3318 18.4669 10.2665C17.4005 9.20008 15.9555 8.60093 14.448 8.60093Z" fill="#2B67F6"/>
</svg>
