<svg width="16" height="16" viewBox="0 0 16 16" fill="none" xmlns="http://www.w3.org/2000/svg">
<path fill-rule="evenodd" clip-rule="evenodd" d="M6.58849 0.500061C9.94558 0.500061 12.677 3.23149 12.677 6.58858C12.677 7.92965 12.2359 9.16672 11.4984 10.1738L14.8249 13.5003C15.1906 13.8661 15.1906 14.4591 14.8249 14.8249C14.4591 15.1906 13.8661 15.1906 13.5003 14.8249L10.1739 11.4984C9.16677 12.2359 7.92959 12.6771 6.58852 12.6771C3.23142 12.6771 0.5 9.94567 0.5 6.58858C0.5 3.23149 3.2314 0.500061 6.58849 0.500061ZM2.3734 6.58857C2.3734 8.91294 4.26416 10.8037 6.58852 10.8037C8.91285 10.8037 10.8036 8.91294 10.8036 6.58857C10.8036 4.26421 8.91288 2.37346 6.58852 2.37346C4.26416 2.37346 2.3734 4.26421 2.3734 6.58857Z" fill="white"/>
</svg>
